<?xml version="1.0" encoding="UTF-8"?>
<svg width="160px" height="51px" viewBox="0 0 160 51" version="1.1" xmlns="http://www.w3.org/2000/svg" xmlns:xlink="http://www.w3.org/1999/xlink">
    <!-- Generator: Sketch 52.2 (67145) - http://www.bohemiancoding.com/sketch -->
    <title>logo--portfolioris\</title>
    <desc>Created with Sketch.</desc>
    <defs>
        <polygon id="path-1" points="17.7653973 0.0360805842 0.0486956522 0.0360805842 0.0486956522 14.7104258 17.7653973 14.7104258"></polygon>
        <polygon id="path-3" points="0 0.0532578192 0 0.829529791 3.03551424 0.829529791 3.03551424 0.0532578192 9.75294308e-21 0.0532578192"></polygon>
        <polygon id="path-5" points="0.0157481259 0.839083354 3.46678261 0.839083354 3.46678261 0.0635665575 0.0157481259 0.0635665575"></polygon>
        <polygon id="path-7" points="0.0156521739 14.3842861 0.564617691 14.3842861 0.564617691 0.0579327122 0.0156521739 0.0579327122"></polygon>
        <polygon id="path-9" points="0.0408155922 14.3842861 0.588221889 14.3842861 0.588221889 0.0579446991 0.0408155922 0.0579446991"></polygon>
        <polygon id="path-11" points="0 50.0691826 159.936192 50.0691826 159.936192 0.119869051 0 0.119869051"></polygon>
    </defs>
    <g id="Page-1" stroke="none" stroke-width="1" fill="none" fill-rule="evenodd">
        <g id="iPad-Pro-Landscape" transform="translate(-33.000000, -31.000000)">
            <g id="logo--portfolioris\" transform="translate(33.000000, 31.000000)">
                <path d="M85.9615712,8.57049328 C83.9786027,8.57085288 82.3125157,9.07370355 81.0045697,9.89085087 C80.9165337,9.94599063 80.8372534,10.0078431 80.7525757,10.0652603 C80.1092174,10.5039811 79.5607316,11.0192981 79.111916,11.5909536 C78.9565937,11.7884978 78.8133853,11.991556 78.6824108,12.2007275 C78.009907,13.274035 77.6498471,14.4861508 77.6491274,15.705219 C77.6498471,17.0731646 78.0963838,18.4346373 78.9377631,19.597487 C79.6785127,19.0338627 80.2267586,18.2827632 80.5167736,17.4224631 C80.3169535,16.8843709 80.2044498,16.3082802 80.2048096,15.705219 C80.2044498,15.2136361 80.2803718,14.7397937 80.4148246,14.2894457 C80.5014213,13.9993626 80.6151244,13.721626 80.7522159,13.4545577 C81.130027,12.7202399 81.689907,12.0833757 82.3933553,11.5909536 C82.4908666,11.5226283 82.5875382,11.4535837 82.6903268,11.3911319 C83.6022309,10.8373369 84.7186327,10.5138103 85.9615712,10.5145295 C89.2921859,10.5126116 91.7174933,12.8357937 91.7156942,15.705219 C91.7174933,18.5735656 89.2921859,20.8974668 85.9615712,20.8951893 C84.8550045,20.8959085 83.8515862,20.6357927 83.0004918,20.1884414 C82.5750645,20.7698063 82.0575232,21.3038229 81.4503868,21.7681956 C82.6854093,22.433349 84.1942549,22.8385064 85.9615712,22.8392256 C91.2331754,22.8373077 94.2694573,19.2875056 94.2712564,15.705219 C94.2694573,12.1225729 91.2331754,8.5719317 85.9615712,8.57049328 L85.9615712,8.57049328 Z" id="Fill-1" fill="#929292"></path>
                <path d="M85.9615712,8.36013508 C83.8874483,8.36013508 82.1368036,8.88048663 80.7525757,9.7287999 C80.6671784,9.78118267 80.5837001,9.8360827 80.5010615,9.89086286 C79.8493073,10.3231107 79.2857091,10.8302766 78.8149445,11.3907843 C78.6495472,11.5876093 78.4961439,11.7906674 78.354015,11.9998389 C77.5350645,13.2039235 77.102081,14.5933257 77.102081,15.9876425 C77.102081,17.3820792 77.5350645,18.7707621 78.354015,19.9747269 C77.5577331,20.422198 76.6045697,20.6842318 75.5456192,20.6842318 C72.5255292,20.6842318 70.3362639,18.5905989 70.3362639,15.9872829 C70.3362639,13.3836073 72.5255292,11.2899744 75.5456192,11.2899744 C76.6045697,11.2899744 77.558093,11.5520082 78.354015,11.9994793 C78.4961439,11.7903078 78.6495472,11.5871298 78.8149445,11.3904247 C77.9034003,10.8365098 76.7877181,10.5133428 75.5456192,10.5141819 C72.2134453,10.512264 69.7870585,12.8354461 69.7888576,15.7048714 C69.7870585,18.5732179 72.2134453,20.8971192 75.5456192,20.8948417 C76.6517061,20.8955609 77.654045,20.6354451 78.5047796,20.1884534 C78.7170735,20.0766156 78.9196522,19.9532703 79.111916,19.8187772 C79.8148846,19.3263552 80.3747646,18.6894909 80.7522159,17.9548135 C80.8410915,17.7823219 80.920012,17.6047959 80.9875382,17.4221154 C81.1873583,16.8839034 81.3001019,16.3078127 81.2996222,15.7048714 C81.3001019,15.2132884 81.22406,14.7398057 81.0896072,14.2889782 C81.4352744,13.4471378 82.0352144,12.7258858 82.8228606,12.2010991 C83.4946447,13.2740469 83.8547046,14.4858032 83.8554243,15.7048714 C83.8547046,17.072817 83.4085277,18.4342897 82.5671484,19.5967798 C82.5126957,19.6726569 82.4515262,19.744818 82.3933553,19.8184176 C81.9445397,20.3897135 81.396054,20.9053902 80.7525757,21.3441109 C80.5309265,21.4951459 80.2989625,21.6363516 80.0548846,21.767848 C78.8205817,22.4330014 77.312096,22.8381588 75.5456192,22.838878 C70.2717361,22.8370799 67.2354543,19.287158 67.2331754,15.7048714 C67.2354543,12.1222252 70.2717361,8.57158408 75.5456192,8.57002579 C77.5278681,8.57050526 79.1934753,9.07335593 80.5010615,9.89050325 C80.5837001,9.83572309 80.6671784,9.78094294 80.7525757,9.72844029 C79.3688276,8.88000715 77.6189025,8.35977547 75.5456192,8.35977547 C69.9373433,8.35977547 66.6861289,12.1577065 66.6861289,15.9872829 C66.6861289,19.8164997 69.9373433,23.6144307 75.5456192,23.6144307 C77.6189025,23.6144307 79.3688276,23.094199 80.7525757,22.2457659 C80.9967736,22.0962892 81.2298171,21.9369832 81.4503868,21.767848 C82.0575232,21.3034753 82.5750645,20.7694587 83.0004918,20.1880938 C83.0521859,20.1178505 83.102081,20.0464086 83.1511364,19.9747269 C83.9698471,18.7707621 84.4028306,17.3815997 84.4028306,15.9872829 C84.4028306,14.5933257 83.9698471,13.2039235 83.1511364,11.9998389 C83.9475382,11.5524876 84.9014213,11.290334 85.9615712,11.290334 C88.9792624,11.290334 91.1681679,13.3839669 91.1681679,15.9876425 C91.1681679,18.5909585 88.9792624,20.6845914 85.9615712,20.6845914 C84.9014213,20.6845914 83.9475382,20.4225576 83.1511364,19.9752063 C83.102081,20.0467682 83.0521859,20.1182101 83.0004918,20.1884534 C83.8515862,20.6358047 84.8550045,20.8959205 85.9615712,20.8952013 C89.2921859,20.8974788 91.7174933,18.5735775 91.7156942,15.705231 C91.7174933,12.8358057 89.2921859,10.5126236 85.9615712,10.5145415 C84.7186327,10.5138223 83.6022309,10.8373489 82.6903268,11.3911439 C82.5875382,11.4535957 82.4908666,11.5226402 82.3933553,11.5909656 C81.689907,12.0833877 81.130027,12.7202519 80.7522159,13.4545697 C80.6151244,13.721638 80.5014213,13.9993746 80.4148246,14.2894577 C80.2803718,14.7398057 80.2044498,15.213648 80.2048096,15.705231 C80.2044498,16.3082922 80.3169535,16.8843829 80.5167736,17.4221154 C80.2267586,18.2827752 79.6785127,19.0335151 78.9377631,19.5971394 L78.9377631,19.597499 C78.0963838,18.4346493 77.6498471,17.0731766 77.6491274,15.705231 C77.6498471,14.4860429 78.009907,13.2740469 78.6824108,12.2007395 C78.8133853,11.991568 78.9565937,11.7885098 79.111916,11.5909656 C79.5607316,11.0193101 80.1092174,10.503993 80.7525757,10.0652723 C80.8372534,10.007855 80.9165337,9.94600262 81.0045697,9.89086286 C82.3125157,9.07371554 83.9786027,8.57086487 85.9615712,8.57050526 C91.2331754,8.57194369 94.2694573,12.1225848 94.2712564,15.705231 C94.2694573,19.2875176 91.2331754,22.8373197 85.9615712,22.8392376 C84.1942549,22.8385184 82.6854093,22.433361 81.4503868,21.7682076 C81.2298171,21.9373428 80.9967736,22.0966488 80.7525757,22.2461255 C82.1368036,23.0945587 83.8874483,23.6147903 85.9615712,23.6147903 C91.5674483,23.6147903 94.8187826,19.8168593 94.8187826,15.9876425 C94.8187826,12.1580661 91.5674483,8.36013508 85.9615712,8.36013508" id="Fill-3" fill="#FFFFFF"></path>
                <path d="M82.8228726,12.2007514 C82.0352264,12.7255382 81.4352864,13.4466704 81.0896192,14.2889902 C81.224072,14.7394581 81.3001139,15.2133004 81.2996342,15.7048834 C81.3001139,16.3078247 81.1873703,16.8839154 80.9875502,17.4221274 C80.920024,17.6048079 80.8411034,17.7822141 80.7522279,17.9548255 C80.3747766,18.6895029 79.8148966,19.3263672 79.111928,19.8187892 C78.9195442,19.9532823 78.7170855,20.0766275 78.5047916,20.1884654 C77.654057,20.6354571 76.6517181,20.8955729 75.5456312,20.8948537 C72.2134573,20.8971312 69.7869505,18.5732299 69.7888696,15.7048834 C69.7869505,12.8354581 72.2134573,10.512276 75.5456312,10.5141939 C76.7877301,10.5133548 77.9032924,10.8365218 78.8149565,11.3904367 C79.2857211,10.8296892 79.8493193,10.322763 80.5010735,9.89051524 C79.1934873,9.07336792 77.5277601,8.57051725 75.5456312,8.57003777 C70.2716282,8.57159607 67.2353463,12.1222372 67.2331874,15.7048834 C67.2353463,19.28717 70.2716282,22.836972 75.5456312,22.83889 C77.3121079,22.8381707 78.8205937,22.4330133 80.0548966,21.76786 C80.2988546,21.6363636 80.5309385,21.4951579 80.7525877,21.3441229 C81.396066,20.9054022 81.9445517,20.3896056 82.3933673,19.8184296 C82.4515382,19.74483 82.5127076,19.6726688 82.5671604,19.5967917 C83.4085397,18.4343017 83.8545967,17.072829 83.8553163,15.7048834 C83.8545967,14.4856953 83.4945367,13.2736993 82.8228726,12.2007514" id="Fill-5" fill="#929292"></path>
                <path d="M80.7522639,2.27420358 C77.4202099,2.27264528 74.9935832,4.59546774 74.9955022,7.46501294 C74.9951424,7.7730764 75.0283658,8.07322851 75.0824588,8.36654807 C75.096012,8.43990793 75.1088456,8.51266845 75.1255172,8.58482961 C75.2913943,9.30212601 75.6173913,9.96140579 76.0707646,10.5337805 C76.3449475,10.8796027 76.6615892,11.1964166 77.023928,11.4693584 C77.389985,11.7450573 77.8008996,11.9749661 78.2437181,12.1610029 C78.2792204,12.1056234 78.3166417,12.0508432 78.354063,11.9960631 C78.3631784,11.982398 78.3721739,11.9684932 78.3816492,11.954948 C77.6543328,11.6323804 77.0385607,11.1650109 76.5674363,10.5915574 C76.0892354,10.009713 75.7616792,9.32214415 75.6226687,8.56996585 C75.6098351,8.49984246 75.5984408,8.42887998 75.5886057,8.35743803 C75.5618591,8.15737658 75.5429085,7.95503762 75.5429085,7.74730456 C75.5429085,5.14374878 77.7321739,3.05047555 80.7522639,3.05047555 C83.769955,3.05047555 85.9588606,5.14374878 85.9588606,7.74730456 C85.9588606,7.95503762 85.94003,8.15737658 85.9131634,8.35743803 C85.9033283,8.42923959 85.892054,8.50020206 85.8792204,8.57044533 C85.7402099,9.32262362 85.4126537,10.0104322 84.9343328,10.5923965 C84.4635682,11.1650109 83.8485157,11.6320208 83.1228786,11.9542288 C83.1327136,11.9681336 83.1417091,11.9820384 83.1511844,11.9964227 C83.1882459,12.0508432 83.2251874,12.1052638 83.2606897,12.1604035 C83.7024288,11.9746065 84.1127436,11.7457765 84.4776012,11.4705571 C84.8402999,11.1974954 85.1569415,10.8803219 85.4314843,10.5337805 C85.8848576,9.96140579 86.2104948,9.30212601 86.3763718,8.58482961 C86.3929235,8.51230884 86.4062369,8.43942846 86.4194303,8.36654807 C86.4734033,8.07274903 86.5067466,7.7730764 86.5063868,7.46501294 C86.5081859,4.59546774 84.0827586,2.27264528 80.7522639,2.27420358" id="Fill-7" fill="#FFFFFF"></path>
                <g id="Group-11" transform="translate(71.844078, 0.083788)">
                    <mask id="mask-2" fill="white">
                        <use xlink:href="#path-1"></use>
                    </mask>
                    <g id="Clip-10"></g>
                    <path d="M8.90818591,0.0360566104 C3.29991004,0.0360566104 0.0486956522,3.83422735 0.0486956522,7.66356404 C0.0486956522,8.0622485 0.0861169415,8.46021375 0.155202399,8.85362397 C0.169235382,8.93225807 0.182428786,9.00993322 0.19862069,9.08772823 C0.341469265,9.76127243 0.586266867,10.4174356 0.924857571,11.0370387 C1.0471964,11.2609541 1.18164918,11.4799549 1.32869565,11.6933218 C2.23148426,13.0019322 3.59604198,14.0851888 5.36455772,14.7104258 C5.40953523,14.4563034 5.46878561,14.2040989 5.54170915,13.9545316 C4.03514243,13.4160798 2.84917541,12.5228156 2.01547226,11.4407577 C1.8507946,11.2269113 1.69847076,11.0071913 1.56209895,10.7800395 C1.20431784,10.1857287 0.944407796,9.55138172 0.785367316,8.89713644 C0.767256372,8.82113946 0.745307346,8.74646104 0.729835082,8.67010446 C0.642518741,8.24492893 0.596101949,7.81352022 0.595742129,7.38115256 C0.59802099,3.79886598 3.63430285,0.248344699 8.90818591,0.246786401 C14.1797901,0.248344699 17.216072,3.79886598 17.2178711,7.38115256 C17.2175112,7.81304075 17.1712144,8.24432959 17.0842579,8.66866603 C17.0683058,8.74490274 17.0468366,8.82006064 17.0287256,8.89593775 C16.870045,9.55018303 16.6101349,10.18453 16.2527136,10.7788408 C16.115982,11.0062324 15.964018,11.2259524 15.7993403,11.439559 C14.965997,12.5220964 13.7805097,13.4153606 12.2745427,13.9545316 C12.347946,14.2036194 12.4071964,14.4559438 12.4521739,14.7104258 C14.2198501,14.0843497 15.5835682,13.0007335 16.4862369,11.6921231 C16.6331634,11.4792357 16.7676162,11.2598753 16.890075,11.0359599 C17.2285457,10.4164767 17.4729835,9.759834 17.6154723,9.08700902 C17.631904,9.009214 17.6452174,8.93069977 17.6588906,8.85290476 C17.7283358,8.45937467 17.7653973,8.06188889 17.7653973,7.66356404 C17.7653973,3.83422735 14.514063,0.0360566104 8.90818591,0.0360566104" id="Fill-9" fill="#FFFFFF" mask="url(#mask-2)"></path>
                </g>
                <path d="M80.7522639,0.330550894 C75.4783808,0.332109192 72.442099,3.88263047 72.4398201,7.46503692 C72.4401799,7.89728471 72.4865967,8.3288133 72.573913,8.75398882 C72.5893853,8.83022554 72.6113343,8.90490395 72.6294453,8.98090093 C72.7884858,9.63514621 73.0483958,10.2694932 73.4061769,10.863804 C73.5425487,11.0910757 73.6948726,11.3107957 73.8595502,11.5245222 C74.6932534,12.6065801 75.8792204,13.4998443 77.3857871,14.038296 C77.5776912,13.3846501 77.8644678,12.7519813 78.2437181,12.1610268 C77.8008996,11.9749901 77.389985,11.7450812 77.023928,11.4693824 C76.6615892,11.1964406 76.3449475,10.8796267 76.0707646,10.5338045 C75.6173913,9.96142977 75.2913943,9.30214999 75.1255172,8.58473372 C75.1088456,8.51269242 75.096012,8.43981204 75.0824588,8.36657205 C75.0283658,8.07325248 74.9951424,7.77310038 74.9955022,7.46503692 C74.9935832,4.59549171 77.4202099,2.27266925 80.7522639,2.27422755 C84.0827586,2.27266925 86.5081859,4.59549171 86.5063868,7.46503692 C86.5067466,7.77310038 86.4734033,8.072773 86.4194303,8.36657205 C86.4062369,8.43945243 86.3929235,8.51233281 86.3763718,8.58473372 C86.2104948,9.30214999 85.8848576,9.96142977 85.4314843,10.5338045 C85.1569415,10.8803459 84.8402999,11.1975194 84.4776012,11.4705811 C84.1127436,11.7456806 83.7024288,11.9746305 83.2606897,12.1604275 C83.6404198,12.7516217 83.9271964,13.3842905 84.1186207,14.038296 C85.6245877,13.4991251 86.810075,12.6058609 87.6434183,11.5233235 C87.808096,11.3097168 87.96006,11.0899969 88.0967916,10.8626053 C88.4542129,10.2682945 88.7141229,9.63394752 88.8728036,8.97970224 C88.8909145,8.903945 88.9123838,8.82878711 88.9283358,8.75243052 C89.0152924,8.32809408 89.0615892,7.89680524 89.061949,7.46503692 C89.0601499,3.88263047 86.0238681,0.332109192 80.7522639,0.330550894" id="Fill-12" fill="#7DFF00"></path>
                <polygon id="Fill-14" fill="#FFFFFF" points="3.03551424 26.7872349 2.48930735 26.2872349 12.4084678 26.2872349 12.4084678 26.7872349"></polygon>
                <polygon id="Fill-16" fill="#FFFFFF" points="12.1103688 28.8024951 12.1103688 29.5780478 6.33777511 29.5780478 5.79108846 28.8024951"></polygon>
                <polygon id="Fill-18" fill="#FFFFFF" points="5.79108846 28.8024951 6.33777511 29.5780478 6.33777511 35.8591861 5.79108846 36.0720735"></polygon>
                <polygon id="Fill-20" fill="#FFFFFF" points="5.79108846 36.359246 6.33777511 35.859246 12.1103688 35.859246 12.1103688 36.359246"></polygon>
                <polygon id="Fill-22" fill="#FFFFFF" points="0.550092954 36.359246 4.7976012e-05 35.859246 2.48928336 35.859246 3.03549025 36.359246"></polygon>
                <polygon id="Fill-24" fill="#FFFFFF" points="3.03551424 36.0721335 2.48930735 35.859246 2.48930735 26.2872229 3.03551424 26.4971136"></polygon>
                <path d="M12.1103688,36.0721335 L12.1103688,35.859246 C14.8308486,35.859246 16.0581949,34.3934873 16.0581949,32.718557 C16.0581949,31.0430274 14.8308486,29.5779879 12.1103688,29.5779879 L12.1103688,28.802555 C15.1636822,28.7911675 16.6085997,30.5060141 16.6052414,32.4361456 C16.6085997,34.3677154 15.1636822,36.0804044 12.1103688,36.0721335" id="Fill-26" fill="#FFFFFF"></path>
                <g id="Group-30" transform="translate(0.000000, 38.322016)">
                    <mask id="mask-4" fill="white">
                        <use xlink:href="#path-3"></use>
                    </mask>
                    <g id="Clip-29"></g>
                    <polygon id="Fill-28" fill="#FFFFFF" mask="url(#mask-4)" points="3.03551424 0.0532578192 2.48930735 0.829529791 -4.7976012e-05 0.829529791 0.550116942 0.0532578192"></polygon>
                </g>
                <polygon id="Fill-31" fill="#FFFFFF" points="12.4084078 38.3752734 12.4084078 39.1515454 6.33776312 39.1515454 5.79107646 38.3752734"></polygon>
                <path d="M12.4084078,26.4971256 L12.4084078,26.2872349 C14.7310465,26.2872349 16.6052294,26.9750435 17.9003418,28.1221903 C19.1926957,29.2714947 19.9074183,30.8798977 19.9074183,32.718569 C19.9074183,34.5589186 19.1926957,36.1657632 17.9003418,37.3135093 C16.6052294,38.4636529 14.7310465,39.1514615 12.4084078,39.1514615 L12.4084078,38.3753094 C14.5943148,38.3737511 16.3282879,37.7349689 17.516054,36.6815597 C18.699982,35.6297088 19.2992024,33.9676045 19.360012,32.4361575 C19.2992024,30.9041112 18.699982,29.2412877 17.516054,28.1917143 C16.3282879,27.1383051 14.5943148,26.4994031 12.4084078,26.4971256" id="Fill-33" fill="#FFFFFF"></path>
                <polygon id="Fill-35" fill="#FFFFFF" points="0.550092954 38.3752734 4.7976012e-05 39.1515454 4.7976012e-05 35.8592221 0.550092954 36.0721095"></polygon>
                <polygon id="Fill-37" fill="#FFFFFF" points="5.79108846 44.2976796 6.33777511 45.0755098 2.48925937 45.0755098 3.03546627 44.2976796"></polygon>
                <polygon id="Fill-39" fill="#FFFFFF" points="5.79108846 38.3752734 6.33777511 39.1515454 6.33777511 45.0755938 5.79108846 44.2976436"></polygon>
                <path d="M12.1103688,36.0721335 C15.1636822,36.0804044 16.6085997,34.3677154 16.6052414,32.4361456 C16.6085997,30.5060141 15.1636822,28.7911675 12.1103688,28.802555 L5.79108846,28.802555 L5.79108846,36.0721335 L12.1103688,36.0721335 L12.1103688,36.0721335 Z M12.4084198,26.4971136 C14.5943268,26.4993911 16.3282999,27.1382931 17.516066,28.1917023 C18.699994,29.2412757 19.2992144,30.9040992 19.360024,32.4361456 C19.2992144,33.9675925 18.699994,35.6296968 17.516066,36.6815477 C16.3282999,37.7349569 14.5943268,38.3737391 12.4084198,38.3752974 L5.79108846,38.3752974 L5.79108846,44.2976676 L3.03546627,44.2976676 L3.03546627,38.3752974 L0.550068966,38.3752974 L0.550068966,36.0721335 L3.03546627,36.0721335 L3.03546627,26.4971136 L12.4084198,26.4971136 Z" id="Fill-41" fill="#929292"></path>
                <polygon id="Fill-43" fill="#FFFFFF" points="3.03551424 44.2976796 2.48930735 45.0755098 2.48930735 39.1514615 3.03551424 38.3753094"></polygon>
                <path d="M30.258099,42.7421869 L30.258099,42.5314571 C33.2769895,42.5314571 35.4658951,40.4381838 35.4658951,37.8346281 C35.4658951,35.2309524 33.2769895,33.1376792 30.258099,33.1376792 C27.2383688,33.1376792 25.0487436,35.2309524 25.0487436,37.8346281 C25.0487436,40.4381838 27.2383688,42.5314571 30.258099,42.5314571 L30.258099,42.7421869 C26.9278441,42.7444644 24.4998981,40.4209227 24.4998981,37.5520967 C24.4998981,34.6826714 26.9278441,32.3599688 30.258099,32.3614072 C33.5882339,32.3599688 36.0147406,34.6826714 36.0121019,37.5520967 C36.0147406,40.4209227 33.5882339,42.7444644 30.258099,42.7421869" id="Fill-45" fill="#FFFFFF"></path>
                <path d="M30.258099,30.4176826 L30.258099,30.2070727 C35.8644558,30.2070727 39.1149505,34.0053633 39.1149505,37.8345801 C39.1149505,41.6637969 35.8644558,45.4620875 30.258099,45.4620875 C24.6494633,45.4620875 21.3996882,41.6637969 21.3996882,37.8345801 C21.3996882,34.0053633 24.6494633,30.2070727 30.258099,30.2070727 L30.258099,30.4176826 C24.9826567,30.4192409 21.9474543,33.969882 21.9456552,37.5521686 C21.9474543,41.1344552 24.9826567,44.6843771 30.258099,44.6865348 C35.5293433,44.6843771 38.5663448,41.1344552 38.5689835,37.5521686 C38.5663448,33.969882 35.5293433,30.4192409 30.258099,30.4176826" id="Fill-47" fill="#FFFFFF"></path>
                <path d="M30.258099,42.7421869 C33.5882339,42.7444644 36.0147406,40.4209227 36.0121019,37.5520967 C36.0147406,34.6826714 33.5882339,32.3599688 30.258099,32.3614072 C26.9278441,32.3599688 24.4998981,34.6826714 24.4998981,37.5520967 C24.4998981,40.4209227 26.9278441,42.7444644 30.258099,42.7421869 M30.258099,30.4177305 C35.5293433,30.419169 38.5663448,33.9698101 38.5689835,37.5520967 C38.5663448,41.1345031 35.5293433,44.6843052 30.258099,44.6865827 C24.9826567,44.6843052 21.9474543,41.1345031 21.9456552,37.5520967 C21.9474543,33.9698101 24.9826567,30.419169 30.258099,30.4177305" id="Fill-49" fill="#929292"></path>
                <path d="M49.2698523,34.4966346 C49.3373523,34.6377664 49.3973523,34.7468071 49.5283523,34.9334876 C49.4193523,34.7857995 49.2873523,34.5856615 49.1753523,34.4334876 C49.2303523,34.4597126 49.2648523,34.4814517 49.2698523,34.4966346" id="Fill-51" fill="#FFFFFF"></path>
                <path d="M48.768096,30.4425955 L48.768096,30.2070727 C49.5323538,30.2070727 50.1943028,30.4064024 50.66003,30.7070727 L49.9966417,30.619137 C49.9906447,30.6148475 49.4314843,30.4425955 48.768096,30.4425955" id="Fill-53" fill="#FFFFFF"></path>
                <polygon id="Fill-55" fill="#FFFFFF" points="42.8455292 31.0937223 42.2988426 30.5937223 45.5496972 30.5937223 45.0030105 31.0937223"></polygon>
                <polygon id="Fill-57" fill="#FFFFFF" points="45.0030465 30.8043322 45.5497331 30.5937223 45.5497331 32.1809084 45.0030465 32.3907991"></polygon>
                <path d="M45.9784948,32.3908351 L45.615916,32.1809443 C46.1825127,30.9826134 47.3755562,30.2070607 48.76806,30.2070607 L48.76806,30.4176706 C47.6090795,30.4176706 46.6044618,31.0679602 45.9784948,32.3908351" id="Fill-59" fill="#FFFFFF"></path>
                <polygon id="Fill-61" fill="#FFFFFF" points="45.0030465 32.6809443 45.5497331 32.1809443 45.6158201 32.1809443 45.9785187 32.6809443"></polygon>
                <polygon id="Fill-63" fill="#FFFFFF" points="49.9966657 30.5755981 50.660054 30.6541123 49.4325877 33.736545 49.1753163 32.6369861"></polygon>
                <path d="M49.198021,32.6619549 C49.2108546,32.7502984 49.2252474,32.8303709 49.2509145,32.9549148 C49.3011694,33.1897383 49.3781709,33.5016376 49.4326237,33.7365809 C49.1006297,33.4986408 48.4707046,33.3173988 48.1387106,33.3173988 C46.8776612,33.3173988 45.7492654,34.1827335 45.7492654,35.4997348 L45.2024588,35.2188816 C45.2013793,33.6127562 46.594003,32.5395686 48.1387106,32.5411269 C48.5478261,32.5442435 49.2055772,32.7200914 49.198021,32.6619549" id="Fill-65" fill="#FFFFFF"></path>
                <polygon id="Fill-67" fill="#FFFFFF" points="45.2025187 35.2188816 45.7492054 35.4997348 45.7492054 45.0755938 45.2025187 44.2976436"></polygon>
                <polygon id="Fill-69" fill="#FFFFFF" points="45.2025187 44.2976796 45.7492054 45.0755098 42.2988906 45.0755098 42.8455772 44.2976796"></polygon>
                <path d="M48.768096,30.4176826 C49.4314843,30.4176826 49.9906447,30.5717143 49.9966417,30.5755501 L49.1754123,32.6370581 C49.3388906,32.7578861 48.5890255,32.5441596 48.1387706,32.5411628 C46.593943,32.5396045 45.2014393,33.6126723 45.2025187,35.2189176 L45.2025187,44.2976796 L42.8455772,44.2976796 L42.8455772,30.8043802 L45.0030585,30.8043802 L45.0030585,32.390847 L45.9785307,32.390847 C46.6044978,31.0679722 47.6089955,30.4176826 48.768096,30.4176826" id="Fill-71" fill="#929292"></path>
                <polygon id="Fill-73" fill="#FFFFFF" points="42.8455292 44.2976796 42.2988426 45.0755098 42.2988426 30.5937702 42.8455292 30.8043802"></polygon>
                <polygon id="Fill-75" fill="#FFFFFF" points="53.7949265 26.8581352 53.2463208 26.7666751 56.6962759 25.8960662 56.1497091 26.2638244"></polygon>
                <polygon id="Fill-77" fill="#FFFFFF" points="56.1496852 31.0937223 56.6963718 30.5937223 59.4495952 30.5937223 58.9029085 31.0937223"></polygon>
                <polygon id="Fill-79" fill="#FFFFFF" points="51.8368816 31.0937223 51.2875562 30.5937223 53.2462969 30.5937223 53.7949025 31.0937223"></polygon>
                <polygon id="Fill-81" fill="#FFFFFF" points="53.7949265 30.8043322 53.2463208 30.5937223 53.2463208 26.7666631 53.7949265 26.8581232"></polygon>
                <polygon id="Fill-83" fill="#FFFFFF" points="56.1496852 26.2638244 56.6963718 25.8960662 56.6963718 30.5937343 56.1496852 30.8043442"></polygon>
                <polygon id="Fill-85" fill="#FFFFFF" points="58.9029685 32.7503343 59.4496552 33.5258871 56.6963118 33.5258871 56.1497451 32.7503343"></polygon>
                <polygon id="Fill-87" fill="#FFFFFF" points="58.9029685 30.8043322 59.4496552 30.5937223 59.4496552 33.5258391 58.9029685 32.7502864"></polygon>
                <polygon id="Fill-89" fill="#FFFFFF" points="51.8368816 32.7503343 51.2875562 33.5258871 51.2875562 30.5937702 51.8368816 30.8043802"></polygon>
                <polygon id="Fill-91" fill="#FFFFFF" points="53.7949265 32.7503343 53.2463208 33.5258871 51.2875802 33.5258871 51.8369055 32.7503343"></polygon>
                <polygon id="Fill-93" fill="#FFFFFF" points="56.1496852 32.7503343 56.6963718 33.5258871 56.6963718 39.2420825 56.1496852 38.9573935"></polygon>
                <polygon id="Fill-95" fill="#FFFFFF" points="53.7949265 39.5267955 53.2463208 39.809207 53.2463208 33.5257912 53.7949265 32.7503583"></polygon>
                <path d="M56.1496852,38.9574175 L56.6963718,39.2421065 C56.6963718,40.7962087 57.0948126,41.5127859 58.1231784,42.0535152 L57.8481559,42.1977177 C56.6176912,41.5535414 56.1417691,40.672384 56.1496852,38.9574175" id="Fill-97" fill="#FFFFFF"></path>
                <polygon id="Fill-99" fill="#FFFFFF" points="57.8481679 42.1977416 58.1231904 42.0535392 59.9823808 43.0109333 59.2373133 42.9127605"></polygon>
                <polygon id="Fill-101" fill="#FFFFFF" points="59.2373133 42.9127485 59.9823808 43.0109213 58.4549445 45.4621235 58.2278981 44.5363748"></polygon>
                <path d="M56.1496852,26.2638244 L56.1496852,30.8043442 L58.9029085,30.8043442 L58.9029085,32.7502984 L56.1496852,32.7502984 L56.1496852,38.9573575 C56.1417691,40.672324 56.6176912,41.5536013 57.8481559,42.1977776 L59.2373013,42.9127965 L58.2278861,44.5363029 C55.2701649,43.256461 53.7949025,42.25963 53.7949025,39.5267355 L53.7949025,32.7502984 L51.8368816,32.7502984 L51.8368816,30.8043442 L53.7949025,30.8043442 L53.7949025,26.8581352 L56.1496852,26.2638244 Z" id="Fill-103" fill="#929292"></path>
                <path d="M58.2278381,44.5363628 L58.4548846,45.4621115 C54.9056192,43.9367778 53.2463688,42.8282289 53.2463688,39.809207 L53.7949745,39.5267955 C53.7949745,42.25969 55.2701169,43.2564011 58.2278381,44.5363628" id="Fill-105" fill="#FFFFFF"></path>
                <path d="M69.4345067,26.1682084 L69.4345067,25.8960662 C70.2656912,25.8960662 71.3608636,26.050372 72.089979,26.3960662 L71.3552264,26.3700165 C71.2396042,26.3120944 70.2150765,26.1682084 69.4345067,26.1682084" id="Fill-107" fill="#FFFFFF"></path>
                <polygon id="Fill-109" fill="#FFFFFF" points="71.3551784 26.2668691 72.089931 26.2872468 70.6638441 29.0985357 70.3872624 28.1726671"></polygon>
                <path d="M70.3872864,28.1727151 L70.6638681,29.0985836 C70.1995802,28.9188999 69.7673163,28.8282789 69.1378711,28.8282789 C67.7454873,28.8282789 66.9150225,29.876294 66.9150225,30.954636 L66.3676162,30.6706662 C66.3635382,29.3613366 67.3937031,28.0542845 69.1378711,28.0542845 C69.844078,28.0527262 70.3484258,28.1584507 70.3872864,28.1727151" id="Fill-111" fill="#FFFFFF"></path>
                <path d="M64.0128936,30.8511531 L63.463928,31.1328453 C63.463928,28.440107 65.2886957,25.8960062 69.4345427,25.8960062 L69.4345427,26.1088937 C65.647916,26.1141679 64.0167316,28.3895222 64.0128936,30.8511531" id="Fill-113" fill="#FFFFFF"></path>
                <polygon id="Fill-115" fill="#FFFFFF" points="64.0128936 33.7991885 63.463928 33.5863011 63.463928 31.1328214 64.0128936 30.8511291"></polygon>
                <polygon id="Fill-117" fill="#FFFFFF" points="66.3676522 30.6706542 66.9150585 30.954624 66.9150585 33.5862292 66.3676522 33.7992365"></polygon>
                <polygon id="Fill-119" fill="#FFFFFF" points="66.3676522 34.0863011 66.9150585 33.5863011 70.3646537 33.5863011 69.8186867 34.0863011"></polygon>
                <polygon id="Fill-121" fill="#FFFFFF" points="61.7556462 34.0863011 61.2089595 33.5863011 63.463952 33.5863011 64.0129175 34.0863011"></polygon>
                <polygon id="Fill-123" fill="#FFFFFF" points="64.0128936 35.7428412 63.463928 36.5176747 61.2089355 36.5176747 61.7556222 35.7428412"></polygon>
                <polygon id="Fill-125" fill="#FFFFFF" points="69.8187466 33.7991885 70.3645937 33.5863011 70.3645937 36.5176987 69.8187466 35.7428652"></polygon>
                <polygon id="Fill-127" fill="#FFFFFF" points="69.8187466 35.7428412 70.3645937 36.5176747 66.9151184 36.5176747 66.3677121 35.7428412"></polygon>
                <polygon id="Fill-129" fill="#FFFFFF" points="61.7556462 35.7428412 61.2089595 36.5176747 61.2089595 33.5862771 61.7556462 33.7991645"></polygon>
                <path d="M80.6826867,42.7421869 L80.6826867,42.5314571 C83.7004978,42.5314571 85.8894033,40.4381838 85.8894033,37.8346281 C85.8894033,35.2309524 83.7004978,33.1376792 80.6826867,33.1376792 C77.6627166,33.1376792 75.4734513,35.2309524 75.4734513,37.8346281 C75.4734513,40.4381838 77.6627166,42.5314571 80.6826867,42.5314571 L80.6826867,42.7421869 C77.3506327,42.7444644 74.9241259,40.4209227 74.926045,37.5520967 C74.9241259,34.6826714 77.3506327,32.3599688 80.6826867,32.3614072 C84.0133013,32.3599688 86.4386087,34.6826714 86.4368096,37.5520967 C86.4386087,40.4209227 84.0133013,42.7444644 80.6826867,42.7421869" id="Fill-131" fill="#FFFFFF"></path>
                <path d="M80.6826867,30.4176826 L80.6826867,30.2070727 C86.2886837,30.2070727 89.540018,34.0053633 89.540018,37.8345801 C89.540018,41.6637969 86.2886837,45.4620875 80.6826867,45.4620875 C75.0745307,45.4620875 71.8233163,41.6637969 71.8233163,37.8345801 C71.8233163,34.0053633 75.0745307,30.2070727 80.6826867,30.2070727 L80.6826867,30.4176826 C75.4088036,30.4192409 72.3725217,33.969882 72.3702429,37.5521686 C72.3725217,41.1344552 75.4088036,44.6843771 80.6826867,44.6865348 C85.9542909,44.6843771 88.9906927,41.1344552 88.9924918,37.5521686 C88.9906927,33.969882 85.9542909,30.4192409 80.6826867,30.4176826" id="Fill-133" fill="#FFFFFF"></path>
                <path d="M80.6826867,42.7421869 C84.0133013,42.7444644 86.4386087,40.4209227 86.4368096,37.5520967 C86.4386087,34.6826714 84.0133013,32.3599688 80.6826867,32.3614072 C77.3506327,32.3599688 74.9241259,34.6826714 74.926045,37.5520967 C74.9241259,40.4209227 77.3506327,42.7444644 80.6826867,42.7421869 M80.6826867,30.4177305 C85.9542909,30.419169 88.9906927,33.9698101 88.9924918,37.5520967 C88.9906927,41.1345031 85.9542909,44.6843052 80.6826867,44.6865827 C75.4088036,44.6843052 72.3725217,41.1345031 72.3702429,37.5520967 C72.3725217,33.9698101 75.4088036,30.419169 80.6826867,30.4177305" id="Fill-135" fill="#7DFF00"></path>
                <g id="Group-139" transform="translate(63.448276, 49.230099)">
                    <mask id="mask-6" fill="white">
                        <use xlink:href="#path-5"></use>
                    </mask>
                    <g id="Clip-138"></g>
                    <polygon id="Fill-137" fill="#FFFFFF" mask="url(#mask-6)" points="2.91937631 0.0635665575 3.46678261 0.839119315 0.0157481259 0.839119315 0.564593703 0.0635665575"></polygon>
                </g>
                <g id="Group-142" transform="translate(63.448276, 35.684896)">
                    <mask id="mask-8" fill="white">
                        <use xlink:href="#path-7"></use>
                    </mask>
                    <g id="Clip-141"></g>
                    <polygon id="Fill-140" fill="#FFFFFF" mask="url(#mask-8)" points="0.564617691 13.6087693 0.0156521739 14.384322 0.0156521739 0.832766255 0.564617691 0.0579327122"></polygon>
                </g>
                <path d="M69.4345067,26.1089536 C70.2150765,26.1089536 71.2396042,26.2215107 71.3552264,26.2668212 L70.3873103,28.1727391 C70.3484498,28.1584746 69.843982,28.0527501 69.1378951,28.0543084 C67.3937271,28.0543084 66.3635622,29.3613606 66.3676402,30.6706902 L66.3676402,33.7991526 L69.8187946,33.7991526 L69.8187946,35.7428292 L66.3676402,35.7428292 L66.3676402,49.2936658 L64.0128576,49.2936658 L64.0128576,35.7428292 L61.7555862,35.7428292 L61.7555862,33.7991526 L64.0128576,33.7991526 L64.0128576,30.851213 C64.0166957,28.3894623 65.648,26.1142279 69.4345067,26.1089536" id="Fill-143" fill="#929292"></path>
                <g id="Group-147" transform="translate(66.326837, 35.684896)">
                    <mask id="mask-10" fill="white">
                        <use xlink:href="#path-9"></use>
                    </mask>
                    <g id="Clip-146"></g>
                    <polygon id="Fill-145" fill="#FFFFFF" mask="url(#mask-10)" points="0.0408155922 0.0579446991 0.588221889 0.832778242 0.588221889 14.384334 0.0408155922 13.6087813"></polygon>
                </g>
                <polygon id="Fill-148" fill="#FFFFFF" points="93.3377631 26.7872349 92.7910765 26.2872349 96.2415112 26.2872349 95.6948246 26.7872349"></polygon>
                <polygon id="Fill-150" fill="#FFFFFF" points="95.6948726 26.4971256 96.2415592 26.2872349 96.2415592 39.2420825 95.6948726 38.9573935"></polygon>
                <polygon id="Fill-152" fill="#FFFFFF" points="93.3377631 39.5267955 92.7910765 39.809207 92.7910765 26.2872588 93.3377631 26.4971495"></polygon>
                <path d="M95.6948726,38.9574175 L96.2415592,39.2421065 C96.2415592,40.9163175 96.6396402,41.5127859 97.6676462,42.0535152 L97.3921439,42.1977177 C96.1685157,41.5588156 95.6834783,40.8097539 95.6948726,38.9574175" id="Fill-154" fill="#FFFFFF"></path>
                <polygon id="Fill-156" fill="#FFFFFF" points="97.3921799 42.1977416 97.6676822 42.0535392 99.5251934 43.0109333 98.7825247 42.9127605"></polygon>
                <polygon id="Fill-158" fill="#FFFFFF" points="98.7825007 42.9127485 99.5251694 43.0109213 97.9985727 45.4621235 97.7729655 44.5363748"></polygon>
                <path d="M97.7729655,44.5363628 L97.9985727,45.4621115 C94.4484678,43.9367778 92.7911364,42.8282289 92.7911364,39.809207 L93.3378231,39.5267955 C93.3378231,42.25969 94.8134453,43.2564011 97.7729655,44.5363628" id="Fill-160" fill="#FFFFFF"></path>
                <path d="M95.6948726,26.4971256 L95.6948726,38.9573935 C95.6834783,40.8097299 96.1685157,41.5587916 97.3921439,42.1976937 L98.7824888,42.9127126 L97.7729535,44.5363389 C94.8134333,43.2563771 93.3378111,42.259666 93.3378111,39.5267715 L93.3378111,26.4971256 L95.6948726,26.4971256 Z" id="Fill-162" fill="#929292"></path>
                <path d="M103.141337,28.5917893 L103.141337,29.367342 C102.079748,29.367342 101.2157,28.5903508 101.2157,27.6343952 C101.2157,26.6760421 102.079748,25.8960542 103.141337,25.8960542 C104.203646,25.8960542 105.065415,26.6760421 105.065415,27.6343952 C105.065415,28.5903508 104.203646,29.367342 103.141337,29.367342 L103.141337,28.5917893 C103.899598,28.5917893 104.517649,28.0346379 104.517649,27.3497062 C104.517649,26.6662128 103.899598,26.1089416 103.141337,26.1089416 C102.383196,26.1089416 101.763586,26.6662128 101.763586,27.3497062 C101.763586,28.0346379 102.383196,28.5917893 103.141337,28.5917893" id="Fill-164" fill="#FFFFFF"></path>
                <path d="M103.141337,28.5917893 C102.383196,28.5917893 101.763586,28.0346379 101.763586,27.3497062 C101.763586,26.6662128 102.383196,26.1089416 103.141337,26.1089416 C103.899598,26.1089416 104.517649,26.6662128 104.517649,27.3497062 C104.517649,28.0346379 103.899598,28.5917893 103.141337,28.5917893" id="Fill-166" fill="#929292"></path>
                <polygon id="Fill-168" fill="#FFFFFF" points="101.964546 31.0937223 101.414501 30.5937223 104.866735 30.5937223 104.318129 31.0937223"></polygon>
                <polygon id="Fill-170" fill="#FFFFFF" points="104.318141 30.8043322 104.866747 30.5937223 104.866747 45.0755818 104.318141 44.2976316"></polygon>
                <polygon id="Fill-172" fill="#FFFFFF" points="104.318141 44.2976796 104.866747 45.0755098 101.414513 45.0755098 101.964558 44.2976796"></polygon>
                <polygon id="Fill-174" fill="#FFFFFF" points="101.964546 44.2976796 101.414501 45.0755098 101.414501 30.5937702 101.964546 30.8043802"></polygon>
                <g id="Clip-178">
                    <mask id="mask-12" fill="white">
                        <use xlink:href="#path-11"></use>
                    </mask>
                    <g id="Clip-177"></g>
                </g>
                <polygon id="Fill-176" fill="#929292" points="101.964498 44.2976077 104.318081 44.2976077 104.318081 30.8043082 101.964498 30.8043082"></polygon>
                <path d="M116.974381,42.7421869 L116.974381,42.5314571 C119.99663,42.5314571 122.184096,40.4381838 122.184096,37.8346281 C122.184096,35.2309524 119.99663,33.1376792 116.974381,33.1376792 C113.95549,33.1376792 111.766585,35.2309524 111.766585,37.8346281 C111.766585,40.4381838 113.95549,42.5314571 116.974381,42.5314571 L116.974381,42.7421869 C113.646885,42.7444644 111.218459,40.4209227 111.220018,37.5520967 C111.218459,34.6826714 113.646885,32.3599688 116.974381,32.3614072 C120.305355,32.3599688 122.731862,34.6826714 122.731862,37.5520967 C122.731862,40.4209227 120.305355,42.7444644 116.974381,42.7421869" id="Fill-178" fill="#FFFFFF"></path>
                <path d="M116.974381,30.4176826 L116.974381,30.2070727 C122.582297,30.2070727 125.833031,34.0053633 125.833031,37.8345801 C125.833031,41.6637969 122.582297,45.4620875 116.974381,45.4620875 C111.368024,45.4620875 108.117529,41.6637969 108.117529,37.8345801 C108.117529,34.0053633 111.368024,30.2070727 116.974381,30.2070727 L116.974381,30.4176826 C111.700498,30.4192409 108.665415,33.969882 108.663496,37.5521686 C108.665415,41.1344552 111.700498,44.6843771 116.974381,44.6865348 C122.247904,44.6843771 125.284906,41.1344552 125.288264,37.5521686 C125.284906,33.969882 122.247904,30.4192409 116.974381,30.4176826" id="Fill-179" fill="#FFFFFF"></path>
                <path d="M116.974381,42.7421869 C120.305355,42.7444644 122.731862,40.4209227 122.731862,37.5520967 C122.731862,34.6826714 120.305355,32.3599688 116.974381,32.3614072 C113.646885,32.3599688 111.218459,34.6826714 111.220018,37.5520967 C111.218459,40.4209227 113.646885,42.7444644 116.974381,42.7421869 M116.974381,30.4177305 C122.247904,30.419169 125.284906,33.9698101 125.288264,37.5520967 C125.284906,41.1345031 122.247904,44.6843052 116.974381,44.6865827 C111.700498,44.6843052 108.665415,41.1345031 108.663496,37.5520967 C108.665415,33.9698101 111.700498,30.419169 116.974381,30.4177305" id="Fill-180" fill="#929292"></path>
                <path d="M135.986528,34.4966346 C136.048028,34.6377664 136.107528,34.7468071 136.238528,34.9334876 C136.133028,34.7857995 135.986528,34.5856615 135.896528,34.4334876 C135.940528,34.4597126 135.972528,34.4814517 135.986528,34.4966346" id="Fill-181" fill="#FFFFFF"></path>
                <path d="M135.485205,30.4425955 L135.485205,30.2070727 C136.248984,30.2070727 136.914291,30.4064024 137.37678,30.7070727 L136.714831,30.619137 C136.707274,30.6148475 136.152072,30.4425955 135.485205,30.4425955" id="Fill-182" fill="#FFFFFF"></path>
                <polygon id="Fill-183" fill="#FFFFFF" points="129.566453 31.0937223 129.016288 30.5937223 132.269061 30.5937223 131.722495 31.0937223"></polygon>
                <polygon id="Fill-184" fill="#FFFFFF" points="131.722435 30.8043322 132.269121 30.5937223 132.269121 32.1809084 131.722435 32.3907991"></polygon>
                <path d="M132.696372,32.3908351 L132.332954,32.1809443 C132.895832,30.9826134 134.090795,30.2070607 135.485217,30.2070607 L135.485217,30.4176706 C134.324558,30.4176706 133.324978,31.0679602 132.696372,32.3908351" id="Fill-185" fill="#FFFFFF"></path>
                <polygon id="Fill-186" fill="#FFFFFF" points="131.722435 32.6809443 132.269121 32.1809443 132.33293 32.1809443 132.696348 32.6809443"></polygon>
                <polygon id="Fill-187" fill="#FFFFFF" points="136.714831 30.5755981 137.37678 30.6541123 136.152072 33.736545 135.8966 32.6369861"></polygon>
                <path d="M135.918117,32.6619549 C135.928672,32.7502984 135.940426,32.8303709 135.97137,32.9549148 C136.020546,33.1897383 136.098747,33.5016376 136.152,33.7365809 C135.820966,33.4986408 135.189001,33.3173988 134.858447,33.3173988 C133.595478,33.3173988 132.467802,34.1827335 132.467802,35.4997348 L131.917637,35.2188816 C131.917637,33.6127562 133.309181,32.5395686 134.858447,32.5411269 C135.264204,32.5442435 135.925553,32.7200914 135.918117,32.6619549" id="Fill-188" fill="#FFFFFF"></path>
                <polygon id="Fill-189" fill="#FFFFFF" points="131.917697 35.2188816 132.467862 35.4997348 132.467862 45.0755938 131.917697 44.2976436"></polygon>
                <polygon id="Fill-190" fill="#FFFFFF" points="131.917697 44.2976796 132.467862 45.0755098 129.016348 45.0755098 129.566393 44.2976796"></polygon>
                <path d="M135.485205,30.4176826 C136.152072,30.4176826 136.707274,30.5717143 136.714831,30.5755501 L135.8966,32.6370581 C136.05684,32.7578861 135.309493,32.5441596 134.858399,32.5411628 C133.309133,32.5396045 131.917709,33.6126723 131.917709,35.2189176 L131.917709,44.2976796 L129.566405,44.2976796 L129.566405,30.8043802 L131.722447,30.8043802 L131.722447,32.390847 L132.69636,32.390847 C133.324966,31.0679722 134.324546,30.4176826 135.485205,30.4176826" id="Fill-191" fill="#929292"></path>
                <polygon id="Fill-192" fill="#FFFFFF" points="129.566453 44.2976796 129.016288 45.0755098 129.016288 30.5937702 129.566453 30.8043802"></polygon>
                <path d="M141.259658,28.5917893 L141.259658,29.367342 C140.19579,29.367342 139.33522,28.5903508 139.33522,27.6343952 C139.33522,26.6760421 140.19579,25.8960542 141.259658,25.8960542 C142.323046,25.8960542 143.183736,26.6760421 143.183736,27.6343952 C143.183736,28.5903508 142.323046,29.367342 141.259658,29.367342 L141.259658,28.5917893 C142.013721,28.5917893 142.639328,28.0346379 142.639328,27.3497062 C142.639328,26.6662128 142.013721,26.1089416 141.259658,26.1089416 C140.499118,26.1089416 139.879988,26.6662128 139.879988,27.3497062 C139.879988,28.0346379 140.499118,28.5917893 141.259658,28.5917893" id="Fill-193" fill="#FFFFFF"></path>
                <path d="M141.259658,28.5917893 C140.499118,28.5917893 139.879988,28.0346379 139.879988,27.3497062 C139.879988,26.6662128 140.499118,26.1089416 141.259658,26.1089416 C142.013721,26.1089416 142.639328,26.6662128 142.639328,27.3497062 C142.639328,28.0346379 142.013721,28.5917893 141.259658,28.5917893" id="Fill-194" fill="#929292"></path>
                <polygon id="Fill-195" fill="#FFFFFF" points="140.082867 31.0937223 139.533901 30.5937223 142.984216 30.5937223 142.43645 31.0937223"></polygon>
                <polygon id="Fill-196" fill="#FFFFFF" points="142.436462 30.8043322 142.984228 30.5937223 142.984228 45.0755818 142.436462 44.2976316"></polygon>
                <polygon id="Fill-197" fill="#FFFFFF" points="142.436462 44.2976796 142.984228 45.0755098 139.533913 45.0755098 140.082879 44.2976796"></polygon>
                <polygon id="Fill-198" fill="#FFFFFF" points="140.082867 44.2976796 139.533901 45.0755098 139.533901 30.5937702 140.082867 30.8043802"></polygon>
                <polygon id="Fill-199" fill="#929292" points="140.082879 44.2976077 142.436462 44.2976077 142.436462 30.8043082 140.082879 30.8043082"></polygon>
                <path d="M152.966813,30.4176826 L152.966813,30.2070727 C155.19242,30.2070727 157.147802,30.8043802 159.338987,32.209605 L158.549781,32.0253663 C156.921595,30.9810671 154.907562,30.4645514 152.966813,30.4176826" id="Fill-200" fill="#FFFFFF"></path>
                <polygon id="Fill-201" fill="#FFFFFF" points="158.549769 32.0253783 159.338975 32.209617 157.379754 34.3935113 157.30875 33.4095062"></polygon>
                <path d="M157.308786,33.4094942 L157.37979,34.3934993 C155.688036,33.1074242 154.196942,32.7782638 153.069145,32.7782638 C151.576612,32.7782638 150.118021,33.4359853 150.118021,34.6042291 C150.118021,35.4718412 150.878081,35.9211105 152.208696,36.1288435 L152.110345,36.3340593 C150.606057,36.1039108 149.577331,35.5298579 149.569895,34.3202593 C149.585007,32.7715511 151.38087,31.9974368 153.069145,32.0028309 C154.313643,32.0028309 155.936672,32.3630374 157.308786,33.4094942" id="Fill-202" fill="#FFFFFF"></path>
                <polygon id="Fill-203" fill="#FFFFFF" points="152.110369 36.3341073 152.2086 36.1287716 155.68806 36.7267983 155.58755 36.9299763"></polygon>
                <path d="M152.539526,38.2936906 L152.440576,39.0608525 C147.927592,38.3133491 146.668462,36.9971869 146.668462,34.9326822 C146.668462,32.4800416 148.95248,30.2070847 152.966873,30.2070847 L152.966873,30.4176946 C149.257367,30.4245271 147.209031,32.4730892 147.213229,34.6495515 C147.209031,36.4202572 148.264864,37.5642874 152.539526,38.2936906" id="Fill-204" fill="#FFFFFF"></path>
                <polygon id="Fill-205" fill="#FFFFFF" points="154.492774 38.6221557 154.395622 39.3901567 152.4406 39.0608765 152.53955 38.2937145"></polygon>
                <polygon id="Fill-206" fill="#FFFFFF" points="146.704636 42.6054642 145.900798 42.9188019 148.257739 40.766673 148.246705 41.198681"></polygon>
                <path d="M148.246753,41.1986451 L148.257787,40.766637 C149.487892,41.9628103 151.509001,42.8908365 153.301265,42.8908365 C155.289511,42.8908365 156.486633,41.8730284 156.486633,41.0649911 C156.486633,40.1074771 155.659046,39.6000714 154.395718,39.3901807 L154.49275,38.6221797 C155.936588,38.8547257 157.027322,39.4980629 157.034519,40.7832988 C157.016288,41.9047937 155.55242,43.1106763 153.301265,43.1015663 C151.344684,43.0985695 149.174969,42.1055743 148.246753,41.1986451" id="Fill-207" fill="#FFFFFF"></path>
                <path d="M152.966813,30.4176826 C154.907562,30.4645514 156.921595,30.9810671 158.549781,32.0253663 L157.308762,33.4094942 C155.936648,32.3630374 154.313619,32.0028309 153.069241,32.0028309 C151.380846,31.9974368 149.584984,32.7715511 149.569871,34.3202593 C149.577307,35.5298579 150.606033,36.1039108 152.110321,36.3340593 L155.587622,36.9299284 C157.860366,37.2562119 159.382765,38.4318876 159.388042,40.3046018 C159.388042,42.1901419 157.674099,44.6752671 153.133529,44.6865348 C150.554699,44.6865348 148.354879,43.8680689 146.704624,42.6054882 L148.246693,41.1985851 C149.175028,42.1056342 151.344744,43.0985096 153.301205,43.1015063 C155.55248,43.1107362 157.016348,41.9047337 157.034459,40.7833588 C157.027262,39.4981228 155.936648,38.8547856 154.49281,38.6221198 L152.539466,38.2936786 C148.264924,37.5642754 147.208972,36.4202452 147.213169,34.6495396 C147.208972,32.4731971 149.257307,30.424635 152.966813,30.4176826" id="Fill-208" fill="#929292"></path>
                <path d="M155.587574,36.9299404 L155.688084,36.7268822 C158.542297,37.2056392 159.93624,38.4318996 159.93624,40.586306 C159.93624,42.7111048 158.011802,45.4620995 153.133481,45.4620995 C150.41612,45.4620995 148.091922,44.5959258 145.900738,42.9188379 L146.704576,42.6055002 C148.354831,43.8680809 150.554651,44.6865468 153.133481,44.6865468 C157.674051,44.6752791 159.388114,42.1901539 159.388114,40.3046137 C159.382837,38.4318996 157.860318,37.2562239 155.587574,36.9299404" id="Fill-209" fill="#FFFFFF"></path>
            </g>
        </g>
    </g>
</svg>