<svg width="512" height="512" xmlns="http://www.w3.org/2000/svg" xmlns:xlink="http://www.w3.org/1999/xlink"><defs><path id="a" d="M511.033 139.271V276.95H0V1.593h511.033z"/></defs><g fill="none" fill-rule="evenodd"><path d="M350.14 185.537c-36.02.006-66.285 9.083-90.044 23.833-1.6.995-3.04 2.111-4.577 3.148-11.687 7.919-21.65 17.22-29.803 27.539a125.912 125.912 0 0 0-7.802 11.007c-12.216 19.373-18.757 41.252-18.77 63.257.013 24.692 8.124 49.266 23.408 70.256 13.456-10.173 23.415-23.73 28.685-39.26-3.63-9.712-5.675-20.11-5.669-30.996-.006-8.874 1.373-17.426 3.815-25.555 1.573-5.236 3.639-10.25 6.129-15.07 6.863-13.255 17.033-24.75 29.811-33.639 1.772-1.233 3.528-2.48 5.395-3.607 16.565-9.996 36.844-15.836 59.422-15.823 60.501-.034 104.557 41.9 104.525 93.694.032 51.774-44.024 93.721-104.525 93.68-20.1.013-38.328-4.682-53.79-12.757-7.726 10.496-17.127 20.133-28.156 28.515 22.435 12.006 49.843 19.32 81.946 19.333 95.76-.033 150.914-64.11 150.947-128.771-.033-64.668-55.187-128.758-150.947-128.784" fill="#929292"/><g transform="translate(0 180.14)"><mask id="b" fill="#fff"><use xlink:href="#a"/></mask><path d="M350.14 1.6c-37.676 0-69.477 9.392-94.621 24.704a154.592 154.592 0 0 0-4.57 2.925c-11.838 7.803-22.076 16.957-30.628 27.074a135.152 135.152 0 0 0-8.373 10.994c-14.876 21.734-22.741 46.813-22.741 71.981 0 25.17 7.865 50.236 22.741 71.968-14.464 8.077-31.778 12.807-51.014 12.807-54.858 0-94.629-37.79-94.629-84.781 0-46.997 39.77-84.788 94.629-84.788 19.236 0 36.556 4.73 51.014 12.807a134.778 134.778 0 0 1 8.373-10.994c-16.56-9.998-36.825-15.832-59.387-15.816-60.528-.035-104.605 41.899-104.573 93.693-.032 51.774 44.045 93.722 104.573 93.68 20.092.013 38.3-4.682 53.753-12.75a103.002 103.002 0 0 0 11.029-6.673c12.77-8.888 22.94-20.384 29.796-33.645a86.1 86.1 0 0 0 4.275-9.615c3.63-9.715 5.677-20.114 5.669-30.997.008-8.873-1.373-17.42-3.815-25.557 6.279-15.196 17.177-28.215 31.484-37.687 12.203 19.367 18.744 41.24 18.755 63.244-.011 24.692-8.116 49.267-23.4 70.25-.989 1.37-2.1 2.672-3.157 4-8.152 10.31-18.116 19.62-29.804 27.54a142.614 142.614 0 0 1-12.674 7.648c-22.421 12.007-49.823 19.32-81.911 19.333-95.801-.033-150.955-64.11-150.997-128.771C9.98 69.506 65.133 5.416 160.934 5.388c36.007.009 66.263 9.085 90.016 23.835a159.16 159.16 0 0 1 4.569-2.925c-25.136-15.315-56.924-24.705-94.585-24.705C59.059 1.593 0 70.147 0 139.272c0 69.118 59.059 137.672 160.934 137.672 37.661 0 69.449-9.39 94.585-24.705a146.95 146.95 0 0 0 12.675-8.627c11.029-8.382 20.43-18.02 28.156-28.515a133.218 133.218 0 0 0 2.739-3.85c14.872-21.733 22.737-46.808 22.737-71.975 0-25.162-7.865-50.24-22.737-71.975 14.466-8.075 31.794-12.807 51.051-12.807 54.817 0 94.579 37.791 94.579 84.788 0 46.99-39.762 84.781-94.579 84.781-19.257 0-36.585-4.73-51.051-12.804a136.178 136.178 0 0 1-2.739 3.849c15.462 8.075 33.69 12.77 53.79 12.757 60.501.041 104.557-41.906 104.525-93.68.032-51.794-44.024-93.729-104.525-93.694-22.578-.013-42.857 5.827-59.422 15.823-1.867 1.127-3.623 2.374-5.395 3.607-12.778 8.888-22.948 20.384-29.811 33.638-2.49 4.821-4.556 9.834-6.129 15.07-2.442 8.13-3.821 16.682-3.815 25.555-.006 10.886 2.04 21.285 5.67 30.99-5.271 15.536-15.23 29.087-28.686 39.26v.007c-15.284-20.99-23.395-45.565-23.408-70.257.013-22.006 6.554-43.883 18.77-63.257 2.379-3.775 4.98-7.44 7.802-11.006 8.153-10.319 18.116-19.62 29.803-27.54 1.538-1.036 2.978-2.152 4.577-3.148C283.855 14.48 314.12 5.403 350.14 5.397c95.76.026 150.914 64.116 150.947 128.783-.033 64.662-55.187 128.737-150.947 128.771-32.103-.013-59.511-7.326-81.946-19.334a146.477 146.477 0 0 1-12.675 8.629c25.144 15.314 56.945 24.704 94.621 24.704 101.832 0 160.893-68.553 160.893-137.672C511.033 70.153 451.972 1.6 350.14 1.6" fill="#FFF" mask="url(#b)"/></g><path d="M293.126 251.064c-14.308 9.473-25.206 22.49-31.485 37.693 2.442 8.131 3.824 16.684 3.815 25.558.009 10.883-2.04 21.282-5.67 30.996a86.276 86.276 0 0 1-4.274 9.616c-6.856 13.26-17.027 24.756-29.798 33.645a102.97 102.97 0 0 1-11.027 6.673c-15.453 8.068-33.661 12.763-53.753 12.75-60.53.041-104.607-41.906-104.572-93.68-.035-51.794 44.043-93.728 104.572-93.694 22.563-.015 42.827 5.818 59.387 15.817 8.552-10.122 18.79-19.272 30.629-27.074-23.753-14.75-54.008-23.827-90.016-23.835-95.8.028-150.955 64.118-150.997 128.786.042 64.661 55.196 128.736 150.997 128.77 32.088-.012 59.49-7.326 81.911-19.332a142.927 142.927 0 0 0 12.674-7.648c11.689-7.92 21.652-17.23 29.805-27.54 1.056-1.328 2.167-2.63 3.157-4 15.283-20.984 23.386-45.559 23.4-70.25-.014-22.007-6.554-43.884-18.755-63.25" fill="#929292"/><path d="M255.513 71.887c-60.527-.028-104.607 41.9-104.572 93.696-.007 5.56.597 10.978 1.58 16.273.245 1.324.479 2.637.781 3.94 3.014 12.947 8.935 24.847 17.17 35.179 4.981 6.242 10.733 11.96 17.315 16.887 6.65 4.977 14.116 9.127 22.158 12.485.645-1 1.325-1.989 2.004-2.978.166-.246.33-.497.501-.742-13.211-5.822-24.397-14.258-32.955-24.61-8.687-10.502-14.637-22.913-17.162-36.49a87.446 87.446 0 0 1-.619-3.836c-.485-3.611-.83-7.263-.83-11.013 0-46.997 39.769-84.78 94.629-84.78 54.817 0 94.578 37.783 94.578 84.78 0 3.75-.342 7.402-.83 11.013a90.131 90.131 0 0 1-.616 3.845c-2.526 13.577-8.478 25.992-17.164 36.497-8.552 10.336-19.724 18.765-32.906 24.581.179.251.342.502.514.762a137.87 137.87 0 0 1 1.99 2.96c8.024-3.354 15.477-7.484 22.105-12.452 6.588-4.929 12.34-10.654 17.327-16.91 8.236-10.33 14.151-22.231 17.164-35.178.301-1.31.543-2.625.783-3.94.98-5.304 1.583-10.713 1.58-16.273.032-51.797-44.026-93.724-104.525-93.696" fill="#FFF"/><path d="M255.513 33C153.638 33 94.579 101.56 94.579 170.68c0 7.196.68 14.38 1.935 21.483.255 1.417.495 2.82.789 4.224 2.595 12.157 7.041 24.001 13.192 35.185a134.4 134.4 0 0 0 7.336 11.846c16.399 23.621 41.186 43.174 73.311 54.46.817-4.587 1.894-9.14 3.218-13.644-27.367-9.72-48.91-25.843-64.054-45.375-2.991-3.86-5.758-7.826-8.236-11.926-6.499-10.727-11.22-22.177-14.109-33.987-.329-1.372-.728-2.72-1.009-4.098-1.586-7.674-2.43-15.461-2.436-23.266.042-64.661 55.196-128.749 150.997-128.777 95.76.028 150.913 64.116 150.946 128.777-.006 7.796-.847 15.58-2.427 23.24-.29 1.376-.682 2.733-1.009 4.103-2.882 11.809-7.603 23.26-14.096 33.987-2.484 4.104-5.244 8.07-8.236 11.926-15.137 19.54-36.672 35.664-64.028 45.396a124.93 124.93 0 0 1 3.227 13.644c32.11-11.301 56.882-30.86 73.279-54.481a134.13 134.13 0 0 0 7.336-11.844c6.148-11.182 10.588-23.035 13.177-35.18.298-1.404.54-2.82.788-4.225 1.262-7.103 1.935-14.278 1.935-21.468C416.405 101.56 357.345 33 255.513 33" fill="#FFF"/><path d="M255.513 36.804c-95.8.028-150.955 64.116-150.997 128.779.007 7.802.85 15.591 2.436 23.264.281 1.378.68 2.726 1.009 4.098 2.889 11.81 7.61 23.26 14.11 33.987 2.477 4.102 5.244 8.068 8.235 11.926 15.144 19.531 36.687 35.655 64.054 45.374 3.486-11.798 8.696-23.218 15.585-33.885-8.042-3.358-15.508-7.508-22.158-12.484-6.582-4.93-12.334-10.646-17.314-16.888-8.236-10.331-14.157-22.232-17.17-35.181-.303-1.3-.537-2.616-.783-3.938-.982-5.294-1.586-10.712-1.58-16.273-.034-51.796 44.046-93.724 104.573-93.696 60.499-.028 104.557 41.9 104.524 93.696.004 5.56-.6 10.97-1.58 16.273-.24 1.313-.481 2.631-.782 3.938-3.013 12.95-8.928 24.85-17.164 35.181-4.987 6.255-10.739 11.98-17.327 16.91-6.628 4.965-14.081 9.098-22.105 12.449 6.897 10.673 12.107 22.093 15.584 33.898 27.356-9.732 48.89-25.856 64.028-45.396 2.992-3.855 5.752-7.821 8.236-11.926 6.493-10.727 11.214-22.177 14.096-33.987.327-1.37.72-2.726 1.01-4.102 1.579-7.66 2.42-15.444 2.426-23.238-.033-64.663-55.187-128.751-150.946-128.78" fill="#7DFF00"/></g></svg>
